<svg width="42" height="41" viewBox="0 0 42 41" fill="none" xmlns="http://www.w3.org/2000/svg">
<g id="Group 36813">
<rect id="Rectangle 4268" x="0.0151367" y="0.375854" width="41.5" height="40.0346" rx="8" fill="#F7F7FF"/>
<g id="Group 36811">
<path id="Vector" d="M20.7651 11.5609C20.13 11.5609 19.6151 12.0758 19.6151 12.7109V28.0753C19.6151 28.7105 20.13 29.2253 20.7651 29.2253C21.4003 29.2253 21.9151 28.7105 21.9151 28.0753V12.7109C21.9151 12.0758 21.4003 11.5609 20.7651 11.5609Z" fill="#6F6C90" stroke="#5BF3E1" stroke-width="0.3" stroke-linecap="round"/>
<path id="Vector_2" d="M12.7298 19.2785C12.1142 19.2785 11.6151 19.7775 11.6151 20.3932C11.6151 21.0088 12.1142 21.5078 12.7298 21.5078H28.8004C29.4161 21.5078 29.9151 21.0088 29.9151 20.3932C29.9151 19.7775 29.4161 19.2785 28.8004 19.2785H12.7298Z" fill="#6F6C90" stroke="#5BF3E1" stroke-width="0.3" stroke-linecap="round"/>
</g>
</g>
</svg>
